# xmcd
#
# Track frame offsets:
# 150
# 20524
# 29378
# 44047
# 61774
# 81405
# 100117
# 111936
# 130470
# 149229
# 163502
# 178344
# 194278
# 215257
# 253736
#
# Disc length: 4301 seconds
#
#
# Revision: 0
# Processed by: cddbd v1.5.2PL0 Copyright (c) Steve Scherf et al.
# Submitted via: FreeRIP 2.951 
#
DISCID=e410cb0f
DTITLE=Nitty Gritty Dirt Band - Will The Circle Be Unbroken III
DYEAR=2002
DGENRE=Old Time
TTITLE0=Fishin' Blues
TTITLE1=Save It, Save It
TTITLE2=Wheels
TTITLE3=Roll In My Sweet Baby's Arms
TTITLE4=Oh Cumberland
TTITLE5=I Am A Pilgrim
TTITLE6=Sallie Ann
TTITLE7=Catfish John
TTITLE8=Roll The Stone Away
TTITLE9=All Prayed Up
TTITLE10=Return To Dismal Swamp II
TTITLE11=There Is A Time
TTITLE12=Will The Circle Be Unbroken (Glory, Glory)
TTITLE13=Farther Along
TTITLE14=Data Track
EXTD=
EXTT0=
EXTT1=
EXTT2=
EXTT3=
EXTT4=
EXTT5=
EXTT6=
EXTT7=
EXTT8=
EXTT9=
EXTT10=
EXTT11=
EXTT12=
EXTT13=
EXTT14=
PLAYORDER=
